<?xml version="1.0" encoding="UTF-8" standalone="no" ?>
<!DOCTYPE svg PUBLIC "-//W3C//DTD SVG 1.1//EN" "http://www.w3.org/Graphics/SVG/1.1/DTD/svg11.dtd">
<svg xmlns="http://www.w3.org/2000/svg" xmlns:xlink="http://www.w3.org/1999/xlink" version="1.1" width="500" height="500" viewBox="0 0 500 500" xml:space="preserve">
<desc>Created with Fabric.js 5.3.0</desc>
<defs>
</defs>
<g transform="matrix(1.8021866228 0 0 1.8021866228 250 250)" id="Bzm6cL6-1j98q1u_haJbV"  >
<path style="stroke: rgb(216,245,240); stroke-width: 0; stroke-dasharray: none; stroke-linecap: butt; stroke-dashoffset: 0; stroke-linejoin: miter; stroke-miterlimit: 4; fill: rgb(255,255,255); fill-rule: nonzero; opacity: 1;"  transform=" translate(0, 0)" d="M 0 -136.18347 C 75.32956 -136.18347 136.46659 -75.17328 136.46659 0 C 136.46659 75.17327 75.32955999999999 136.18347 0 136.18347 C -75.32956 136.18347 -136.46659 75.17328 -136.46659 0 C -136.46659 -75.17327 -75.32955999999999 -136.18347 0 -136.18347 z" stroke-linecap="round" />
</g>
<g transform="matrix(1.3674883536 0 0 1.3849180366 250 338.5507651686)" id="Z03HCu8jHWirVtX2xUUGD"  >
<path style="stroke: rgb(195,75,164); stroke-width: 0; stroke-dasharray: none; stroke-linecap: butt; stroke-dashoffset: 0; stroke-linejoin: miter; stroke-miterlimit: 4; fill: rgb(241,93,34); fill-rule: nonzero; opacity: 1;"  transform=" translate(0, 0)" d="M 0 -67.25522 C 62.20158 -67.25522 112.68403 -16.772779999999997 112.68403 45.42881000000001 C 112.68403 107.63039 62.20159000000001 17.116240000000012 0 17.116240000000012 C -62.20158 17.116240000000012 -112.68403 107.63040000000001 -112.68403 45.42881000000001 C -112.68403 -16.772769999999987 -62.20159000000001 -67.25522 0 -67.25522 z" stroke-linecap="round" />
</g>
<g transform="matrix(1.8021866228 0 0 1.8021866228 250 162.2377975307)" id="CalnN4nKJFWHeg0755a10"  >
<path style="stroke: rgb(171,129,57); stroke-width: 0; stroke-dasharray: none; stroke-linecap: butt; stroke-dashoffset: 0; stroke-linejoin: miter; stroke-miterlimit: 4; fill: rgb(241,93,34); fill-rule: nonzero; opacity: 1;"  transform=" translate(-41.6194843795, -41.6194843795)" d="M 41.61948 0 C 64.59343 0 83.23896 18.64553 83.23896 41.61948 C 83.23896 64.59343 64.59343000000001 83.23896 41.61948 83.23896 C 18.645530000000004 83.23896 0 64.59343000000001 0 41.61948 C 0 18.645530000000004 18.64553 0 41.61948 0 z" stroke-linecap="round" />
</g>
</svg>